<?xml version="1.0" standalone="no"?>
<!DOCTYPE svg PUBLIC "-//W3C//DTD SVG 20010904//EN"
 "http://www.w3.org/TR/2001/REC-SVG-20010904/DTD/svg10.dtd">
<svg version="1.0" xmlns="http://www.w3.org/2000/svg"
 width="455.000000pt" height="341.000000pt" viewBox="0 0 455.000000 341.000000"
 preserveAspectRatio="xMidYMid meet">

<g transform="translate(0.000000,341.000000) scale(0.100000,-0.100000)"
fill="#000000" stroke="none">
<path d="M3585 3359 c-38 -5 -305 -35 -593 -68 -288 -32 -525 -61 -528 -64 -3
-3 -8 -32 -11 -65 -6 -65 20 -173 54 -223 10 -15 31 -46 48 -69 l30 -43 -25
-16 c-57 -36 -90 -78 -90 -113 0 -84 78 -305 124 -350 10 -11 42 -19 86 -24
59 -5 68 -9 54 -19 -10 -7 -15 -19 -11 -28 5 -13 12 -14 44 -5 45 12 134 68
128 79 -10 15 14 20 34 7 11 -7 23 -9 26 -6 10 10 -18 48 -36 48 -12 0 -15 7
-11 28 2 15 10 33 16 41 6 8 16 30 22 50 8 23 12 29 13 16 1 -17 3 -17 11 -5
5 8 10 58 10 110 0 52 5 102 10 110 7 11 5 17 -8 22 -14 5 -12 7 6 7 18 1 27
-7 35 -31 27 -75 106 -225 132 -248 22 -21 36 -25 88 -25 34 0 84 4 111 8 31
6 46 5 42 -1 -3 -6 0 -12 6 -15 9 -3 7 -11 -7 -27 l-20 -24 36 22 c20 12 53
22 74 22 31 0 35 3 26 14 -9 11 -5 15 18 19 18 4 54 32 94 71 70 70 91 70 60
-2 -24 -56 -30 -72 -47 -132 -34 -113 -76 -180 -176 -280 -95 -96 -159 -137
-265 -172 l-40 -13 55 -7 c33 -4 5 -5 -68 -3 -117 3 -123 2 -134 -18 -17 -30
-20 -50 -22 -145 -1 -97 16 -82 -181 -167 -71 -31 -147 -67 -168 -81 -31 -20
-53 -26 -114 -28 -75 -3 -75 -3 -94 28 -20 35 -59 60 -106 71 -40 8 -159 132
-168 176 -4 16 -22 46 -40 67 -18 20 -48 57 -67 81 -33 45 -49 53 -57 30 -2
-7 1 -9 8 -5 6 4 11 1 11 -6 0 -14 -65 -38 -105 -38 -16 0 -25 -6 -25 -16 0
-9 24 -71 54 -139 30 -67 60 -142 66 -166 7 -24 49 -121 95 -215 87 -179 124
-227 202 -260 71 -30 245 -14 501 47 68 16 128 29 134 29 6 0 9 -131 6 -399
l-3 -398 25 7 c14 5 56 22 93 39 38 18 121 46 185 62 105 27 138 31 322 36
214 6 366 -4 515 -33 44 -9 83 -21 86 -26 7 -11 89 -50 89 -42 0 3 -19 14 -42
24 -24 11 -36 20 -28 20 35 0 94 -45 104 -79 11 -40 0 -52 -78 -79 -28 -10
-56 -29 -68 -45 l-20 -27 35 -35 c34 -34 38 -35 101 -33 37 1 61 5 55 9 -8 4
-3 8 12 11 33 4 93 88 129 180 56 144 62 203 67 659 5 397 4 418 -15 455 -15
31 -17 46 -9 74 17 62 2 460 -22 580 -26 130 -26 211 -1 365 10 65 18 121 16
122 -1 2 -18 -19 -37 -47 -19 -27 -39 -52 -45 -54 -7 -2 4 18 22 46 48 70 44
94 -6 38 -21 -25 -39 -48 -40 -52 0 -5 -5 -8 -11 -8 -5 0 2 16 16 35 39 50 67
148 63 219 -3 51 -8 63 -35 92 -21 21 -43 34 -60 35 l-28 1 30 8 c25 6 21 8
-26 9 -43 1 -69 -5 -113 -27 -68 -35 -76 -26 -8 10 61 33 167 45 217 24 19 -8
35 -12 35 -9 0 4 -18 44 -40 90 -72 149 -187 240 -365 289 -71 20 -360 28
-470 13z m-845 -159 c12 -12 25 -18 30 -15 6 4 44 -23 85 -59 77 -67 140 -106
172 -106 10 0 26 -7 36 -14 16 -13 16 -15 -9 -31 -28 -18 -54 -70 -54 -110 0
-19 -5 -25 -23 -25 -12 0 -33 -7 -46 -17 -21 -14 -25 -14 -35 -2 -39 52 -143
65 -244 30 -30 -10 -55 -14 -58 -9 -3 5 -3 25 1 44 9 49 55 77 113 70 30 -4
41 -2 36 5 -9 16 -69 39 -99 39 -34 0 -33 34 1 103 24 49 66 117 72 117 1 0
11 -9 22 -20z m449 -116 c6 4 11 3 11 -2 0 -6 10 -8 23 -5 17 3 18 2 7 -5 -25
-16 -63 -25 -56 -14 3 6 2 13 -4 17 -5 3 -10 12 -10 18 0 8 3 7 9 -2 5 -7 14
-10 20 -7z m89 -58 c-16 -8 -34 -18 -40 -23 -12 -7 -73 -14 -66 -8 2 2 26 13
53 24 58 23 93 28 53 7z m187 -70 c23 -17 50 -35 59 -41 10 -6 25 -45 38 -99
l22 -89 -45 -38 c-62 -53 -159 -101 -219 -107 -53 -5 -72 4 -92 42 -10 19 -9
19 14 -2 29 -26 72 -31 107 -13 25 14 51 67 51 104 0 50 -32 117 -73 152 -35
30 -46 34 -74 29 -78 -15 -1 69 84 92 57 15 73 11 128 -30z m-274 -3 c-63 -89
-45 -242 43 -357 24 -32 32 -36 72 -36 64 0 145 26 201 64 72 49 71 48 65 20
-10 -54 -153 -114 -289 -122 -81 -4 -83 -4 -110 25 -57 61 -133 248 -133 328
0 34 59 95 92 95 12 0 19 -4 13 -8 -5 -4 -11 -16 -13 -27 -3 -16 5 -12 34 18
42 43 56 43 25 0z m959 -47 c0 -2 -8 -10 -17 -17 -16 -13 -17 -12 -4 4 13 16
21 21 21 13z m-840 -47 c0 -5 -4 -9 -10 -9 -5 0 -10 7 -10 16 0 8 5 12 10 9 6
-3 10 -10 10 -16z m314 -36 c-7 -39 -14 -42 -14 -5 0 18 4 32 9 32 5 0 7 -12
5 -27z m806 -35 c0 -39 -26 -98 -42 -98 -5 0 -13 -12 -19 -27 -11 -28 -11 -27
-25 25 -8 29 -19 62 -25 73 -16 31 -4 34 19 5 11 -14 30 -27 43 -28 23 -3 24
0 24 54 0 44 3 54 13 46 6 -6 12 -28 12 -50z m-1650 42 c-12 -7 -11 -10 5 -15
11 -4 28 -11 38 -16 12 -6 17 -5 17 3 0 8 7 5 15 -6 17 -23 20 -40 5 -31 -12
8 -13 -25 -1 -44 5 -7 13 -11 19 -7 14 8 32 -72 31 -136 -1 -29 -3 -44 -6 -33
-3 11 -9 24 -14 30 -5 5 -9 15 -9 22 0 8 -10 27 -22 43 -16 23 -30 30 -54 30
-85 0 -98 -129 -23 -215 36 -40 61 -50 89 -35 16 8 20 8 20 -4 0 -8 -13 -19
-30 -25 -41 -14 -87 3 -111 43 -14 22 -19 26 -19 13 0 -10 13 -31 28 -47 l28
-28 -66 -6 c-36 -4 -74 -4 -83 0 -25 9 -74 96 -102 179 -31 92 -31 95 3 95 15
0 44 3 65 7 34 5 38 9 35 32 -3 24 -7 26 -63 29 -32 2 -61 5 -64 8 -10 10 54
64 101 84 71 30 207 55 168 30z m1357 -141 c21 -18 15 -109 -7 -109 -4 0 -4
17 1 38 12 51 11 62 -3 62 -7 1 -26 7 -43 16 l-30 14 34 -5 c19 -3 40 -10 48
-16z m-807 -58 c0 -5 -7 -11 -15 -15 -15 -5 -20 5 -8 17 9 10 23 9 23 -2z
m-373 -48 c-3 -10 -5 -2 -5 17 0 19 2 27 5 18 2 -10 2 -26 0 -35z m-132 27 c3
-5 -1 -10 -10 -10 -9 0 -13 5 -10 10 3 6 8 10 10 10 2 0 7 -4 10 -10z m1540
-100 c-22 -24 -117 -80 -135 -80 -7 0 9 12 35 26 27 14 62 36 78 50 35 29 47
31 22 4z m-1500 -69 c-3 -6 -11 -11 -17 -11 -6 0 -6 6 2 15 14 17 26 13 15 -4z
m522 -487 c-3 -3 -12 -4 -19 -1 -8 3 -5 6 6 6 11 1 17 -2 13 -5z m243 -110
c33 -36 33 -36 -15 6 -27 24 -52 46 -55 48 -3 3 4 0 15 -6 11 -6 36 -27 55
-48z m-495 -905 c10 -14 1 -21 -19 -13 -9 3 -13 10 -10 15 7 12 21 11 29 -2z
m111 -106 c-15 -8 -30 -12 -34 -9 -3 3 0 6 7 6 7 0 9 5 5 12 -4 6 -3 8 4 4 6
-3 13 -2 17 4 4 6 11 7 17 4 6 -4 0 -13 -16 -21z m-176 -198 c0 -8 -2 -15 -4
-15 -2 0 -6 7 -10 15 -3 8 -1 15 4 15 6 0 10 -7 10 -15z"/>
<path d="M3546 2633 c-6 -14 -5 -15 5 -6 7 7 10 15 7 18 -3 3 -9 -2 -12 -12z"/>
<path d="M4365 2710 c3 -5 8 -10 11 -10 2 0 4 5 4 10 0 6 -5 10 -11 10 -5 0
-7 -4 -4 -10z"/>
<path d="M2699 2696 c-8 -16 -9 -44 -3 -83 l8 -58 6 63 c4 51 10 68 29 83 l23
19 -26 0 c-18 0 -30 -8 -37 -24z"/>
<path d="M445 2705 c-64 -20 -87 -32 -113 -62 -18 -20 -35 -49 -38 -63 -2 -14
-12 -47 -22 -75 -12 -36 -17 -80 -16 -155 1 -117 22 -194 94 -345 21 -44 54
-125 73 -180 51 -147 66 -175 100 -182 18 -4 33 -17 44 -37 27 -53 74 -110
216 -258 23 -25 7 -56 -32 -60 l-29 -3 48 -191 c74 -296 96 -360 132 -392 35
-30 40 -36 69 -75 17 -22 24 -25 30 -15 6 10 14 10 38 1 26 -9 34 -8 56 9 17
13 32 17 46 13 22 -7 22 -6 16 67 -3 50 -1 83 8 106 12 27 12 40 0 85 -19 73
-49 147 -99 247 -24 47 -53 112 -65 146 -12 33 -32 72 -44 86 -13 15 -38 81
-61 164 -26 93 -47 147 -62 162 -28 29 -56 83 -73 142 -33 114 -77 198 -94
181 -7 -7 -5 -34 6 -88 9 -43 17 -101 17 -128 0 -79 18 -170 49 -248 16 -40
32 -88 36 -107 7 -31 6 -33 -9 -21 -9 7 -16 20 -16 27 0 8 -4 14 -8 14 -4 0
-15 24 -24 54 -16 49 -33 90 -123 281 -18 39 -36 93 -40 120 -15 116 -39 170
-47 108 -4 -26 -5 -25 -16 13 -14 47 -8 374 7 401 7 14 12 11 27 -19 11 -22
43 -53 79 -77 130 -88 215 -193 215 -267 0 -50 38 -231 56 -265 19 -38 43 -37
51 2 4 24 10 29 24 26 21 -6 63 24 80 55 8 15 6 30 -12 66 -16 34 -23 71 -26
132 -3 55 -11 100 -24 127 -10 24 -19 49 -19 56 0 8 -14 33 -31 56 -31 43 -33
71 -5 71 8 0 19 -7 24 -15 5 -11 26 -17 63 -19 34 -2 86 -16 139 -38 74 -31
198 -67 545 -159 44 -11 91 -25 105 -29 25 -8 25 -8 2 -9 -19 -1 -23 -6 -20
-28 2 -18 -2 -27 -10 -26 -6 2 -12 -2 -12 -8 0 -14 42 -1 57 19 7 9 13 22 13
29 0 8 8 13 18 11 12 -2 18 5 20 24 4 33 -9 40 -104 62 -39 8 -136 36 -215 61
-189 60 -363 105 -403 104 -30 0 -30 -1 -7 -10 41 -16 14 -22 -36 -8 -43 12
-46 14 -23 20 l25 7 -25 1 c-40 2 -141 56 -128 69 15 15 3 28 -29 35 -16 3
-35 18 -45 34 -34 57 -122 145 -169 168 -63 33 -146 32 -254 0z"/>
<path d="M3040 2435 c0 -14 -6 -16 -30 -13 -31 5 -60 -14 -41 -26 6 -4 7 -14
4 -24 -6 -14 -4 -15 8 -5 8 6 30 13 49 15 27 2 36 8 38 24 2 11 -4 27 -13 34
-12 10 -15 10 -15 -5z"/>
<path d="M3194 2311 c-68 -31 -165 -61 -229 -71 l-60 -9 75 4 c41 2 93 11 115
20 68 29 145 66 145 71 0 6 0 6 -46 -15z"/>
<path d="M2807 2263 c-10 -9 -9 -43 1 -43 8 0 42 37 42 45 0 7 -36 6 -43 -2z"/>
<path d="M1909 2236 c6 -7 7 -17 3 -21 -4 -5 -2 -5 5 -1 7 4 21 -13 37 -46 21
-45 24 -60 16 -98 -12 -62 2 -81 19 -25 11 39 17 45 41 45 15 0 132 -25 261
-55 238 -56 279 -62 279 -45 0 10 -34 21 -310 101 -102 29 -187 56 -190 59 -3
4 -17 10 -32 14 -16 3 -28 13 -28 21 0 8 -9 20 -20 27 -11 7 -20 17 -20 23 0
5 -16 11 -36 12 -28 1 -33 -1 -25 -11z"/>
<path d="M3630 327 c0 -37 62 -51 79 -18 14 25 5 31 -41 31 -24 0 -38 -5 -38
-13z"/>
<path d="M3801 282 c-14 -51 -30 -69 -68 -77 -23 -5 -36 -2 -50 13 -20 20 -53
36 -53 24 0 -4 9 -31 20 -60 11 -29 20 -65 20 -82 0 -46 30 -60 129 -60 l85 0
-31 28 c-16 15 -33 38 -36 52 -3 14 -9 35 -12 48 -7 20 -4 22 24 22 32 0 57
30 33 38 -8 2 -7 10 3 26 14 20 13 24 -5 44 -30 32 -48 27 -59 -16z"/>
<path d="M3266 242 c-31 -7 -101 -49 -144 -88 -36 -32 -71 -89 -61 -98 5 -6
451 -14 465 -9 8 3 8 14 -1 40 -24 71 -190 170 -259 155z"/>
</g>
</svg>
