<?xml version="1.0" standalone="no"?>
<!DOCTYPE svg PUBLIC "-//W3C//DTD SVG 20010904//EN"
 "http://www.w3.org/TR/2001/REC-SVG-20010904/DTD/svg10.dtd">
<svg version="1.0" xmlns="http://www.w3.org/2000/svg"
 width="455.000000pt" height="341.000000pt" viewBox="0 0 455.000000 341.000000"
 preserveAspectRatio="xMidYMid meet">

<g transform="translate(0.000000,341.000000) scale(0.100000,-0.100000)"
fill="#000000" stroke="none">
<path d="M3585 3360 c-69 -10 -1395 -160 -1412 -160 -7 0 -20 -25 -29 -56 -21
-63 -84 -131 -134 -141 -17 -3 -30 -11 -30 -18 0 -17 45 -100 78 -143 25 -32
29 -47 30 -109 2 -88 26 -142 82 -181 25 -17 41 -38 45 -57 13 -55 58 -150 89
-183 17 -19 51 -45 76 -60 66 -38 146 -101 224 -176 38 -36 75 -66 82 -66 8 0
25 -21 38 -47 14 -27 25 -43 26 -36 0 7 7 10 18 7 14 -5 14 -4 2 4 -8 6 -18 8
-22 6 -4 -3 -5 3 -1 12 4 12 3 15 -5 10 -14 -8 -15 3 -3 22 6 10 10 7 15 -12
4 -15 10 -24 15 -21 11 6 23 -24 14 -37 -3 -7 -1 -8 5 -4 6 4 16 -4 23 -16 11
-21 11 -22 -5 -9 -14 12 -19 12 -29 1 -10 -10 -9 -11 2 -5 11 6 13 4 8 -8 -3
-9 -3 -16 1 -16 22 4 32 -3 32 -22 0 -13 -4 -18 -12 -14 -7 4 -4 -1 6 -9 11
-9 24 -16 29 -16 5 0 4 -7 -3 -15 -10 -12 -4 -28 29 -90 42 -78 139 -207 167
-223 14 -8 9 -22 -37 -103 -78 -139 -108 -200 -115 -236 -7 -38 -9 -38 -57
-18 -20 8 -44 15 -54 14 -10 0 -2 -5 17 -10 57 -16 80 -50 80 -117 0 -59 -13
-163 -25 -197 -7 -20 -6 -20 9 -1 9 11 16 29 16 39 0 16 3 17 15 7 13 -11 12
-15 -5 -37 -21 -27 -27 -48 -10 -38 6 3 10 0 10 -8 0 -10 17 -16 55 -21 30 -3
72 -13 93 -22 37 -15 102 -85 102 -109 0 -20 -41 -26 -64 -9 -28 20 -96 18
-148 -5 l-44 -19 -17 30 c-11 19 -23 28 -32 24 -28 -10 -17 44 15 74 17 15 30
31 30 34 0 3 -16 6 -35 6 -30 0 -35 -3 -35 -24 0 -14 -4 -28 -10 -31 -14 -9
-12 8 4 52 8 21 24 83 36 138 12 55 23 109 26 121 7 27 -19 54 -52 54 -18 0
-25 -7 -30 -27 -4 -16 -13 -37 -20 -48 -6 -11 -16 -36 -20 -55 l-8 -35 -8 30
c-5 23 -6 20 -2 -13 6 -54 -19 -102 -54 -102 -31 0 -90 -41 -113 -79 -16 -27
-22 -30 -39 -21 -25 13 -98 84 -128 124 -12 16 -25 26 -28 23 -16 -15 112
-144 160 -161 11 -4 16 -12 12 -22 -3 -9 -6 -22 -6 -30 0 -8 -5 -14 -11 -14
-5 0 -8 4 -4 10 8 13 -39 42 -58 35 -8 -4 -18 -2 -22 4 -4 7 1 8 12 4 16 -6
16 -5 4 11 -8 9 -27 24 -43 32 -17 9 -26 20 -22 26 4 6 3 8 -3 5 -6 -4 -14 0
-17 9 -3 8 -2 13 3 10 5 -4 7 3 4 15 -4 14 -8 17 -13 9 -6 -9 -9 -9 -14 1 -3
8 -3 1 0 -16 3 -16 12 -37 20 -46 8 -9 11 -19 7 -22 -8 -9 15 -27 100 -78 37
-22 67 -42 67 -45 0 -3 -5 -14 -10 -25 -7 -13 -7 -19 0 -19 5 0 10 -8 10 -18
0 -14 11 -21 48 -28 38 -7 48 -13 50 -31 2 -15 -2 -23 -12 -23 -8 0 -17 -8
-21 -19 -7 -22 -49 -31 -157 -31 -69 0 -77 -2 -72 -17 5 -17 5 -17 -8 -1 -8
10 -27 22 -42 28 -38 14 -176 12 -206 -3 -31 -15 -69 -119 -70 -188 0 -25 -3
-67 -6 -93 l-7 -48 -71 2 c-39 1 -107 1 -151 0 -72 -3 -67 -4 50 -10 72 -4
147 -11 167 -15 l37 -7 -6 68 c-6 80 10 201 30 221 34 35 77 -83 77 -214 l0
-73 75 0 c41 0 75 3 75 8 0 4 5 49 10 101 12 116 39 181 73 181 13 0 31 -8 40
-18 22 -24 47 -134 47 -209 l0 -63 135 0 135 0 0 54 c0 58 7 66 60 66 57 0 89
-12 92 -34 2 -16 11 -22 41 -24 45 -4 51 16 7 24 -16 4 -30 11 -30 16 0 6 14
7 38 3 20 -5 45 -8 54 -9 9 0 15 -2 13 -5 -3 -2 2 -13 12 -23 21 -23 6 -24
-21 -1 -14 12 -17 13 -9 3 7 -10 8 -21 3 -30 -6 -9 -3 -18 8 -27 23 -17 33
-16 25 3 -3 9 0 20 8 25 22 14 29 11 29 -15 0 -29 17 -43 32 -28 8 8 7 16 -3
29 -11 14 -7 13 23 -4 24 -14 49 -20 72 -18 20 2 38 -1 41 -6 6 -9 62 -6 108
6 17 5 27 3 27 -4 0 -6 16 -10 35 -9 l35 1 0 69 c0 67 -1 68 -26 68 -18 0 -28
-6 -31 -21 -4 -13 -12 -19 -23 -16 -9 2 -25 0 -34 -5 -15 -9 -17 -5 -14 24 l3
33 94 3 c65 2 97 -1 102 -9 5 -9 18 -10 51 -2 23 6 33 11 22 12 -13 0 -24 9
-27 21 -5 18 -12 19 -76 15 l-71 -4 0 60 0 60 -32 -5 c-18 -3 -93 -8 -167 -11
-133 -6 -134 -6 -128 15 4 17 3 19 -9 9 -8 -7 -14 -7 -14 -1 0 14 32 25 39 13
4 -5 7 23 7 62 1 70 2 73 34 94 43 30 85 29 130 -2 l35 -24 59 29 c32 16 63
27 69 23 5 -3 7 -1 4 4 -4 6 20 22 54 38 58 26 66 27 222 26 89 -1 179 -1 201
-1 33 0 61 -15 180 -94 149 -98 264 -162 306 -167 22 -4 27 3 47 56 12 33 22
70 22 82 1 19 -2 21 -21 14 -13 -4 -36 -11 -53 -14 -23 -5 -21 -2 13 13 29 13
41 24 36 32 -4 7 -4 10 0 6 5 -4 16 1 27 11 14 13 20 40 27 120 4 56 5 104 1
106 -3 2 -23 -5 -45 -17 -49 -26 -99 -44 -194 -69 -58 -15 -91 -18 -147 -13
-40 4 -70 10 -68 14 3 4 35 11 72 15 97 10 247 51 323 88 l65 32 3 113 3 113
-57 -36 c-123 -79 -316 -128 -431 -110 -47 8 -45 8 82 30 166 29 247 57 332
115 l68 46 2 526 2 526 -27 -7 c-53 -16 -97 -38 -112 -57 -13 -17 -13 -17 10
1 l25 20 -19 -22 c-10 -13 -22 -21 -25 -18 -15 9 -29 -13 -45 -70 -23 -81 -67
-195 -84 -220 -14 -19 -14 -19 -9 4 l6 23 -23 -21 c-29 -27 -39 -27 -31 1 6
17 4 20 -9 15 -10 -4 -16 -2 -15 6 4 32 0 38 -21 25 -16 -10 -24 -10 -40 0
-16 10 -20 10 -21 0 -2 -20 -28 113 -29 145 0 15 -8 36 -17 46 -32 35 -40 47
-47 68 -4 12 -13 27 -21 33 -19 16 -19 48 1 95 20 49 14 63 -25 57 -24 -3 -31
0 -31 12 0 9 -5 16 -11 16 -5 0 -7 5 -4 10 4 6 11 7 17 4 7 -5 9 -1 5 9 -3 10
-3 17 2 17 12 0 44 50 37 58 -4 3 -32 -19 -63 -49 -51 -49 -53 -50 -25 -13 17
22 34 52 37 67 4 15 11 30 16 33 12 7 11 61 -1 85 -6 10 -33 32 -60 47 -28 16
-47 32 -42 37 4 4 0 6 -8 3 -9 -3 -29 0 -45 6 l-30 13 35 1 c19 0 44 -5 55
-12 11 -7 26 -11 33 -9 15 6 16 49 1 58 -6 4 -8 13 -5 20 3 8 -4 17 -16 21
-16 5 -18 8 -7 15 8 5 9 9 4 9 -6 0 -11 10 -12 22 -1 12 -9 25 -17 30 -8 5
-35 24 -60 43 -24 18 -59 41 -76 50 l-32 16 21 18 c12 10 39 21 61 25 22 3 40
11 40 17 0 7 7 8 18 4 9 -4 24 -8 33 -9 9 -1 38 -21 65 -44 27 -23 74 -51 104
-62 30 -11 74 -28 98 -36 30 -11 58 -34 91 -73 87 -106 96 -126 95 -218 0 -72
2 -83 17 -83 9 0 31 16 48 35 23 27 31 45 31 75 0 61 14 54 34 -17 18 -61 18
-69 3 -112 -23 -69 -28 -99 -17 -106 5 -3 10 2 10 12 0 32 44 148 64 165 14
13 23 15 37 7 18 -9 19 -5 19 89 0 142 -8 193 -33 200 -19 5 -19 6 -2 18 18
13 18 17 2 90 -40 183 -148 332 -288 399 -121 57 -174 67 -369 70 -96 2 -202
0 -235 -5z m50 -709 c-24 -10 -95 -21 -95 -16 0 7 63 23 90 23 22 1 23 0 5 -7z
m82 -7 c-3 -3 -12 -4 -19 -1 -8 3 -5 6 6 6 11 1 17 -2 13 -5z m-202 -26 c-11
-6 -32 -22 -47 -36 -16 -14 -28 -21 -28 -15 0 11 70 63 85 63 5 0 1 -6 -10
-12z m265 -58 c0 -3 13 -6 30 -7 65 -5 116 -75 90 -123 -26 -48 -82 -100 -117
-106 -22 -4 -37 -14 -42 -27 -6 -17 -9 -13 -14 21 -11 86 -60 127 -152 127
-34 0 -66 -5 -73 -12 -19 -18 -38 -17 -23 0 6 8 8 16 5 20 -10 9 15 45 51 72
18 15 55 30 82 35 51 9 163 9 163 0z m-170 -294 c0 -3 -4 -8 -10 -11 -5 -3
-10 -1 -10 4 0 6 5 11 10 11 6 0 10 -2 10 -4z m-837 -78 c-18 -18 -36 -44 -42
-58 -8 -22 -10 -22 -10 -5 -1 23 54 95 72 95 6 0 -3 -15 -20 -32z m702 -8 c3
-6 -1 -7 -9 -4 -18 7 -21 14 -7 14 6 0 13 -4 16 -10z m16 -23 c13 4 22 -2 28
-18 5 -13 10 -18 10 -11 2 35 71 -19 71 -56 0 -20 -29 -58 -49 -64 -9 -3 -15
-18 -15 -39 l-1 -34 -63 -1 c-35 -1 -69 -7 -74 -12 -7 -7 -16 -7 -27 -1 -22
14 -89 -15 -101 -44 -7 -18 -9 -19 -9 -4 -1 27 -21 10 -21 -19 0 -16 -6 -24
-17 -24 -14 0 -15 -2 -4 -9 9 -6 10 -11 2 -15 -6 -4 -11 -16 -11 -27 0 -10 -7
-19 -14 -19 -8 0 -27 -11 -42 -25 -38 -35 -67 -40 -103 -19 -37 22 -40 34 -8
35 21 0 21 1 -3 10 -38 16 -60 19 -60 8 0 -5 -12 -9 -27 -9 -14 0 -23 3 -20 7
4 3 -1 12 -11 19 -15 12 -11 13 28 14 110 1 176 40 220 128 24 50 28 88 12
119 -11 21 -6 37 9 27 4 -2 5 -12 2 -21 -4 -11 -2 -14 8 -11 8 2 15 14 17 26
l3 21 38 -23 c29 -19 48 -23 82 -20 63 6 74 11 89 42 7 15 16 35 21 45 7 14 5
17 -13 17 -18 0 -20 2 -8 10 8 5 21 5 28 1 8 -5 23 -6 33 -4z m-369 -62 c11
-20 11 -20 -11 0 -13 11 -28 29 -33 40 -11 20 -11 20 11 0 13 -11 28 -29 33
-40z m46 -10 c-3 -3 -9 2 -12 12 -6 14 -5 15 5 6 7 -7 10 -15 7 -18z m-338
-130 c0 -8 -2 -15 -4 -15 -2 0 -6 7 -10 15 -3 8 -1 15 4 15 6 0 10 -7 10 -15z
m140 -35 c0 -5 -5 -10 -11 -10 -5 0 -7 5 -4 10 3 6 8 10 11 10 2 0 4 -4 4 -10z
m129 -26 c-35 -43 -176 -84 -209 -61 -16 11 -11 13 38 12 44 0 70 7 117 31 33
17 62 32 64 32 2 1 -2 -5 -10 -14z m541 -34 c18 -11 21 -8 -74 -56 -43 -21
-106 -62 -140 -90 l-62 -51 -22 33 c-12 19 -22 36 -22 40 0 3 22 3 48 0 44 -4
54 -1 107 35 38 26 51 39 39 40 -18 0 -18 1 -1 8 10 4 17 10 15 15 -4 10 49
34 77 35 11 0 27 -3 35 -9z m-765 -74 c1 -13 -3 -22 -7 -19 -5 2 -6 13 -3 24
6 18 -4 24 -28 20 -5 -1 -6 3 -2 9 11 18 40 -7 40 -34z m788 -14 c-10 -10 -20
-17 -22 -16 -6 5 20 34 30 34 5 0 1 -8 -8 -18z m835 -288 c25 -73 1 -139 -85
-233 -30 -34 -60 -61 -66 -61 -6 0 -19 -8 -29 -17 -10 -9 -26 -17 -36 -18 -9
-1 -44 -10 -77 -19 -46 -14 -82 -17 -155 -13 -113 5 -192 32 -237 79 -29 32
-59 78 -49 78 2 0 11 2 19 5 7 3 35 -12 63 -34 98 -82 317 -121 401 -72 16 9
15 10 -7 11 -18 1 -6 10 46 34 112 53 173 145 174 264 0 54 19 52 38 -4z
m-1678 -533 c-11 -38 -21 -88 -24 -112 -2 -24 -9 -57 -15 -72 -6 -16 -11 -43
-11 -61 0 -19 -7 -39 -15 -46 -13 -11 -14 -8 -11 16 3 16 10 63 16 104 6 41
18 100 27 130 9 30 15 72 14 93 -1 34 1 37 18 27 19 -10 19 -11 1 -79z m-70
-125 c-8 -48 -15 -84 -18 -82 -2 3 1 43 9 90 7 48 14 84 17 82 2 -3 -1 -43 -8
-90z m524 53 c25 -20 26 -25 25 -100 -2 -43 -6 -79 -11 -79 -20 0 -23 8 -23
65 l0 60 -33 3 c-21 2 -46 -5 -69 -19 -19 -12 -50 -23 -67 -24 -17 -2 -51 -5
-76 -9 -25 -4 -65 -3 -89 1 l-44 8 34 26 c35 26 115 49 172 49 18 1 48 9 67
20 46 25 81 25 114 -1z m-44 -64 c0 -2 -17 -16 -37 -30 -26 -17 -50 -25 -78
-24 -38 1 -39 1 -10 8 17 4 48 18 70 29 39 22 55 27 55 17z m20 -30 c0 -8 -2
-15 -4 -15 -2 0 -6 7 -10 15 -3 8 -1 15 4 15 6 0 10 -7 10 -15z m-598 -80
c-14 -55 -21 -69 -34 -67 -15 2 -18 -5 -17 -40 1 -75 0 -81 -16 -68 -9 8 -12
22 -8 41 6 31 -12 42 -20 12 -2 -10 -2 9 0 42 7 79 29 126 73 147 19 10 36 15
37 10 1 -4 -5 -38 -15 -77z m568 -3 c29 -18 46 -36 48 -51 l4 -24 -34 22 c-18
13 -66 38 -105 57 -40 19 -73 36 -73 38 0 12 124 -20 160 -42z m-493 -4 c-3
-8 -6 -5 -6 6 -1 11 2 17 5 13 3 -3 4 -12 1 -19z m-67 -88 c-7 -28 -16 -50
-21 -50 -12 0 -12 5 8 68 21 65 30 52 13 -18z m55 20 c-9 -41 -17 -33 -9 9 4
17 9 30 11 27 3 -2 2 -19 -2 -36z m69 -64 c-9 -7 -18 -32 -21 -59 -3 -26 -9
-47 -13 -47 -4 0 -10 -9 -13 -20 -6 -23 -27 -27 -27 -5 0 9 7 32 16 53 8 20
19 60 25 87 5 28 15 61 21 74 12 23 13 22 21 -24 6 -38 5 -49 -9 -59z m553 82
c-3 -8 -6 -5 -6 6 -1 11 2 17 5 13 3 -3 4 -12 1 -19z m-47 -43 c0 -8 -2 -15
-4 -15 -2 0 -6 7 -10 15 -3 8 -1 15 4 15 6 0 10 -7 10 -15z m40 -6 c0 -5 -4
-9 -10 -9 -5 0 -10 7 -10 16 0 8 5 12 10 9 6 -3 10 -10 10 -16z m27 -1 c-3 -8
-6 -5 -6 6 -1 11 2 17 5 13 3 -3 4 -12 1 -19z m-653 -105 c-9 -43 -17 -88 -17
-100 1 -13 -3 -23 -8 -23 -5 0 -8 27 -7 60 2 33 6 60 10 60 3 0 12 23 19 51
20 78 22 41 3 -48z m130 56 c-21 -24 -27 -19 -18 15 5 21 9 24 20 15 12 -10
12 -15 -2 -30z m199 24 c18 -10 36 -24 40 -30 11 -18 27 -16 27 4 0 13 3 14
12 5 9 -9 7 -17 -8 -34 -12 -13 -28 -40 -38 -60 -21 -47 -30 -49 -22 -5 8 41
-10 94 -34 107 -27 14 -34 12 -20 -5 8 -9 9 -15 2 -15 -6 0 -14 5 -17 10 -3 6
-11 10 -18 10 -6 0 -1 -7 11 -16 12 -8 22 -20 22 -26 0 -6 -10 -2 -23 10 -22
21 -43 27 -78 24 -10 -1 -28 -29 -45 -67 -34 -75 -49 -85 -29 -20 23 78 48
100 114 100 26 1 46 6 49 13 5 16 18 15 55 -5z m121 11 c13 -5 14 -10 5 -20
-8 -10 -16 -11 -31 -3 -17 9 -18 13 -7 20 17 11 14 10 33 3z m-200 -67 c14
-10 16 -21 11 -50 -4 -20 -10 -37 -14 -37 -9 1 -49 89 -43 95 9 9 27 6 46 -8z
m74 -60 c-3 -27 -7 -32 -30 -34 -16 -1 -28 0 -28 1 0 11 25 73 33 84 15 19 29
-9 25 -51z m-123 3 c22 -42 20 -46 -29 -42 -41 4 -43 5 -32 25 30 57 39 60 61
17z m-118 -32 c-3 -8 -6 -5 -6 6 -1 11 2 17 5 13 3 -3 4 -12 1 -19z m305 -30
c-15 -15 -21 4 -9 32 l10 25 5 -24 c2 -13 -1 -28 -6 -33z m-122 -8 c0 -5 -4
-10 -10 -10 -5 0 -10 5 -10 10 0 6 5 10 10 10 6 0 10 -4 10 -10z m-60 -24 c0
-14 -4 -27 -10 -31 -6 -4 -6 -15 1 -32 6 -18 6 -30 -2 -39 -9 -11 -8 -14 4
-14 9 0 19 -5 23 -12 5 -8 -2 -9 -27 -4 -30 6 -32 5 -19 -9 8 -8 40 -19 70
-24 54 -8 53 -9 -35 -9 -99 0 -174 14 -100 19 l40 2 -35 4 c-19 3 -38 10 -42
16 -5 8 -8 6 -8 -5 0 -10 -5 -18 -10 -18 -17 0 -30 47 -23 80 4 23 2 30 -8 28
-7 -2 -15 5 -17 15 -4 19 26 24 44 8 5 -5 36 -11 69 -12 53 -2 60 0 57 15 -4
23 5 46 18 46 5 0 10 -11 10 -24z m132 -24 c-12 -16 -28 -35 -37 -42 -8 -7
-15 -21 -15 -31 0 -11 -4 -19 -10 -19 -25 0 -9 35 42 90 39 43 49 44 20 2z
m358 -53 c0 -17 -4 -28 -10 -24 -5 3 -10 17 -10 31 0 13 5 24 10 24 6 0 10
-14 10 -31z m-450 -3 c0 -2 -7 -6 -15 -10 -8 -3 -15 -1 -15 4 0 6 7 10 15 10
8 0 15 -2 15 -4z m90 -48 c0 -13 -23 -5 -28 10 -2 7 2 10 12 6 9 -3 16 -11 16
-16z m235 -66 c-20 -5 -31 -15 -35 -32 -4 -17 -8 -21 -14 -12 -16 26 3 48 42
49 34 1 35 1 7 -5z m11 -72 c-1 -39 -10 -53 -18 -28 -4 10 12 68 18 68 1 0 1
-18 0 -40z m128 11 c10 -10 13 -21 8 -25 -14 -8 -52 5 -46 16 4 6 0 14 -7 19
-11 7 -9 9 7 9 11 0 29 -9 38 -19z"/>
<path d="M3015 1790 c3 -5 21 -10 38 -9 27 0 29 2 12 9 -28 12 -57 12 -50 0z"/>
<path d="M3168 845 c-3 -3 -34 -12 -69 -20 -41 -8 -53 -14 -34 -14 37 -1 102
16 110 29 7 11 2 13 -7 5z"/>
<path d="M4502 2395 c0 -16 2 -22 5 -12 2 9 2 23 0 30 -3 6 -5 -1 -5 -18z"/>
<path d="M4360 2262 c0 -48 2 -52 24 -52 41 0 136 51 136 72 0 6 -11 3 -25 -6
-27 -18 -78 -27 -92 -17 -5 3 -17 17 -26 31 -17 24 -17 24 -17 -28z"/>
<path d="M2600 1163 c0 -44 13 -83 28 -83 19 0 10 66 -13 89 -13 14 -15 13
-15 -6z"/>
<path d="M2671 1125 c0 -5 8 -46 19 -90 14 -55 18 -66 15 -35 -4 43 -32 146
-34 125z"/>
<path d="M2464 1068 l-19 -23 23 19 c12 11 22 21 22 23 0 8 -8 2 -26 -19z"/>
<path d="M2506 1043 c-6 -14 -5 -15 5 -6 7 7 10 15 7 18 -3 3 -9 -2 -12 -12z"/>
<path d="M2360 666 c0 -19 49 -59 91 -76 19 -8 37 -19 41 -24 5 -7 8 -7 8 2 0
7 -21 25 -47 41 -27 16 -58 38 -70 50 -16 14 -23 16 -23 7z"/>
<path d="M3633 525 c-58 -26 -74 -44 -20 -21 47 19 94 45 82 45 -5 0 -34 -11
-62 -24z"/>
<path d="M3843 479 c-35 -16 -63 -34 -63 -39 0 -6 -29 -10 -67 -10 -98 0 -143
-15 -143 -45 0 -20 5 -25 26 -25 67 0 127 -119 128 -252 l1 -68 107 0 c104 0
291 29 310 48 6 6 -6 27 -29 54 -28 33 -46 44 -68 45 -16 1 -37 2 -45 4 -8 1
-21 0 -29 -2 -10 -3 -18 12 -26 51 -7 30 -19 71 -27 90 -19 45 -74 100 -99
100 -29 0 -23 16 14 31 39 16 96 49 82 48 -5 0 -38 -14 -72 -30z"/>
<path d="M3551 488 c1 -7 5 -24 9 -38 8 -24 8 -24 9 7 1 17 -3 35 -9 38 -5 3
-10 0 -9 -7z"/>
<path d="M3232 464 c-39 -27 -26 -84 19 -84 41 0 59 38 35 75 -19 29 -24 30
-54 9z m33 -24 c4 -6 2 -17 -4 -24 -6 -7 -8 -16 -4 -19 3 -4 -1 -7 -11 -7 -22
0 -31 26 -16 45 15 18 26 19 35 5z"/>
<path d="M3452 468 c-17 -17 -15 -53 4 -69 15 -12 16 -10 10 18 -8 34 8 53 27
34 7 -7 7 -18 -1 -36 -9 -20 -9 -25 3 -25 23 0 36 35 25 64 -10 28 -47 35 -68
14z"/>
<path d="M3160 429 c0 -19 4 -41 9 -48 6 -10 8 1 4 30 -7 55 -13 63 -13 18z"/>
<path d="M2415 440 c-4 -6 -13 -9 -21 -6 -8 3 -14 1 -14 -4 0 -6 6 -10 13 -10
18 0 43 18 35 25 -3 4 -9 1 -13 -5z"/>
<path d="M2480 440 l-35 -7 38 -2 c20 0 37 4 37 9 0 6 -1 9 -2 9 -2 -1 -19 -5
-38 -9z"/>
<path d="M3381 419 c0 -15 6 -32 14 -39 16 -13 21 0 6 16 -5 5 -11 18 -14 29
-4 16 -5 14 -6 -6z"/>
</g>
</svg>
